<svg width="69" height="69" viewBox="0 0 69 69" fill="none" xmlns="http://www.w3.org/2000/svg">
<path fill-rule="evenodd" clip-rule="evenodd" d="M34.5 69C53.5538 69 69 53.5538 69 34.5C69 15.4462 53.5538 0 34.5 0C15.4462 0 0 15.4462 0 34.5C0 53.5538 15.4462 69 34.5 69Z" fill="#5454D4" fill-opacity="0.1"/>
<path d="M32 34.3334C31.12 34.7734 30.3867 35.4267 29.84 36.24C29.5333 36.7067 29.5333 37.2934 29.84 37.76C30.3867 38.5734 31.12 39.2267 32 39.6667" stroke="#5454D4" stroke-width="2" stroke-linecap="round" stroke-linejoin="round"/>
<path d="M40.28 34.3334C41.16 34.7734 41.8933 35.4267 42.44 36.24C42.7467 36.7067 42.7467 37.2934 42.44 37.76C41.8933 38.5734 41.16 39.2267 40.28 39.6667" stroke="#5454D4" stroke-width="2" stroke-linecap="round" stroke-linejoin="round"/>
<path d="M32 46.3333H40C46.6667 46.3333 49.3333 43.6666 49.3333 37V29C49.3333 22.3333 46.6667 19.6666 40 19.6666H32C25.3333 19.6666 22.6667 22.3333 22.6667 29V37C22.6667 43.6666 25.3333 46.3333 32 46.3333Z" stroke="#5454D4" stroke-width="2" stroke-linecap="round" stroke-linejoin="round"/>
<path d="M22.9734 27.68L48.6 27.6666" stroke="#5454D4" stroke-width="2" stroke-linecap="round" stroke-linejoin="round"/>
</svg>
