<svg width="69" height="69" viewBox="0 0 69 69" fill="none" xmlns="http://www.w3.org/2000/svg">
<path fill-rule="evenodd" clip-rule="evenodd" d="M34.5 69C53.5538 69 69 53.5538 69 34.5C69 15.4462 53.5538 0 34.5 0C15.4462 0 0 15.4462 0 34.5C0 53.5538 15.4462 69 34.5 69Z" fill="#5454D4" fill-opacity="0.1"/>
<path d="M27.0134 47.3334H40.9867C44.6667 47.3334 46.1334 45.08 46.3067 42.3334L47 31.32C47.1867 28.44 44.8934 26 42 26C41.1867 26 40.44 25.5334 40.0667 24.8134L39.1067 22.88C38.4934 21.6667 36.8934 20.6667 35.5334 20.6667H32.48C31.1067 20.6667 29.5067 21.6667 28.8934 22.88L27.9334 24.8134C27.56 25.5334 26.8134 26 26 26C23.1067 26 20.8134 28.44 21 31.32L21.6934 42.3334C21.8534 45.08 23.3334 47.3334 27.0134 47.3334Z" stroke="#5454D4" stroke-width="2" stroke-linecap="round" stroke-linejoin="round"/>
<path d="M32 28.6667H36" stroke="#5454D4" stroke-width="2" stroke-linecap="round" stroke-linejoin="round"/>
<path d="M34 42C36.3867 42 38.3334 40.0533 38.3334 37.6666C38.3334 35.28 36.3867 33.3333 34 33.3333C31.6134 33.3333 29.6667 35.28 29.6667 37.6666C29.6667 40.0533 31.6134 42 34 42Z" stroke="#5454D4" stroke-width="2" stroke-linecap="round" stroke-linejoin="round"/>
</svg>
