<svg width="69" height="69" viewBox="0 0 69 69" fill="none" xmlns="http://www.w3.org/2000/svg">
<path fill-rule="evenodd" clip-rule="evenodd" d="M34.5 69C53.5538 69 69 53.5538 69 34.5C69 15.4462 53.5538 0 34.5 0C15.4462 0 0 15.4462 0 34.5C0 53.5538 15.4462 69 34.5 69Z" fill="#F04037" fill-opacity="0.1"/>
<path d="M37.3467 20.8934L45.2133 24.3867C47.48 25.3867 47.48 27.0401 45.2133 28.0401L37.3467 31.5334C36.4533 31.9334 34.9867 31.9334 34.0933 31.5334L26.2267 28.0401C23.96 27.0401 23.96 25.3867 26.2267 24.3867L34.0933 20.8934C34.9867 20.4934 36.4533 20.4934 37.3467 20.8934Z" stroke="#F04037" stroke-width="2" stroke-linecap="round" stroke-linejoin="round"/>
<path d="M24 31.6666C24 32.7866 24.84 34.08 25.8667 34.5333L34.92 38.56C35.6133 38.8666 36.4 38.8666 37.08 38.56L46.1333 34.5333C47.16 34.08 48 32.7866 48 31.6666" stroke="#F04037" stroke-width="2" stroke-linecap="round" stroke-linejoin="round"/>
<path d="M24 38.3334C24 39.5734 24.7333 40.6934 25.8667 41.2L34.92 45.2267C35.6133 45.5334 36.4 45.5334 37.08 45.2267L46.1333 41.2C47.2667 40.6934 48 39.5734 48 38.3334" stroke="#F04037" stroke-width="2" stroke-linecap="round" stroke-linejoin="round"/>
</svg>
