<svg width="51" height="51" viewBox="0 0 51 51" fill="none" xmlns="http://www.w3.org/2000/svg">
<path d="M25.7088 8.37391C26.8594 8.37478 27.7914 9.30822 27.7905 10.4588L27.7811 22.9588L40.2811 22.9683C41.4317 22.9691 42.3637 23.9026 42.3629 25.0532C42.362 26.2038 41.4285 27.1358 40.2779 27.1349L27.778 27.1255L27.7685 39.6255C27.7677 40.7761 26.8342 41.7081 25.6836 41.7072C24.533 41.7064 23.601 40.7729 23.6019 39.6223L23.6113 27.1223L11.1113 27.1129C9.9607 27.112 9.02867 26.1786 9.02954 25.028C9.0304 23.8774 9.96385 22.9454 11.1144 22.9462L23.6144 22.9557L23.6239 10.4557C23.6247 9.30507 24.5582 8.37304 25.7088 8.37391Z" fill="#E7E7E7"/>
</svg>
